# Generated test file, don't expect fancy things

v 0 -0.5 -0.5
v 0 -0.5 0.5
v 0 0.5 0.5
v 0 0.5 -0.5
v 1 0.5 -0.5
v 1 -0.5 -0.5
v 1 -0.5 0.5
v 1 0.5 0.5
v 2 0.5 -0.5
v 2 -0.5 -0.5
v 2 -0.5 0.5
v 2 0.5 0.5
v 3 0.5 -0.5
v 3 -0.5 -0.5
v 3 -0.5 0.5
v 3 0.5 0.5
v 4 0.5 -0.5
v 4 -0.5 -0.5
v 4 -0.5 0.5
v 4 0.5 0.5
v 5 0.5 -0.5
v 5 -0.5 -0.5
v 5 -0.5 0.5
v 5 0.5 0.5
v 6 0.5 -0.5
v 6 -0.5 -0.5
v 6 -0.5 0.5
v 6 0.5 0.5
v 7 0.5 -0.5
v 7 -0.5 -0.5
v 7 -0.5 0.5
v 7 0.5 0.5
v 8 0.5 -0.5
v 8 -0.5 -0.5
v 8 -0.5 0.5
v 8 0.5 0.5
v 9 0.5 -0.5
v 9 -0.5 -0.5
v 9 -0.5 0.5
v 9 0.5 0.5
v 10 0.5 -0.5
v 10 -0.5 -0.5
v 10 -0.5 0.5
v 10 0.5 0.5

vt 0.375 0
vt 0.625 0
vt 0.625 0.25
vt 0.375 0.25

vn -1 0 0
vn 0 0 -1
vn 0 -1 0
vn -0 0 1
vn 0 1 0
vn 1 0 0

f 1/1/1 2/2/1 3/3/1
f 1/1/1 3/3/1 4/4/1
f 4/1/2 5/2/2 6/3/2
f 4/1/2 6/3/2 1/4/2
f 1/1/3 6/2/3 7/3/3
f 1/1/3 7/3/3 2/4/3
f 2/1/4 7/2/4 8/3/4
f 2/1/4 8/3/4 3/4/4
f 3/1/5 8/2/5 5/3/5
f 3/1/5 5/3/5 4/4/5
f 5/1/2 9/2/2 10/3/2
f 5/1/2 10/3/2 6/4/2
f 6/1/3 10/2/3 11/3/3
f 6/1/3 11/3/3 7/4/3
f 7/1/4 11/2/4 12/3/4
f 7/1/4 12/3/4 8/4/4
f 8/1/5 12/2/5 9/3/5
f 8/1/5 9/3/5 5/4/5
f 9/1/2 13/2/2 14/3/2
f 9/1/2 14/3/2 10/4/2
f 10/1/3 14/2/3 15/3/3
f 10/1/3 15/3/3 11/4/3
f 11/1/4 15/2/4 16/3/4
f 11/1/4 16/3/4 12/4/4
f 12/1/5 16/2/5 13/3/5
f 12/1/5 13/3/5 9/4/5
f 13/1/2 17/2/2 18/3/2
f 13/1/2 18/3/2 14/4/2
f 14/1/3 18/2/3 19/3/3
f 14/1/3 19/3/3 15/4/3
f 15/1/4 19/2/4 20/3/4
f 15/1/4 20/3/4 16/4/4
f 16/1/5 20/2/5 17/3/5
f 16/1/5 17/3/5 13/4/5
f 17/1/2 21/2/2 22/3/2
f 17/1/2 22/3/2 18/4/2
f 18/1/3 22/2/3 23/3/3
f 18/1/3 23/3/3 19/4/3
f 19/1/4 23/2/4 24/3/4
f 19/1/4 24/3/4 20/4/4
f 20/1/5 24/2/5 21/3/5
f 20/1/5 21/3/5 17/4/5
f 21/1/2 25/2/2 26/3/2
f 21/1/2 26/3/2 22/4/2
f 22/1/3 26/2/3 27/3/3
f 22/1/3 27/3/3 23/4/3
f 23/1/4 27/2/4 28/3/4
f 23/1/4 28/3/4 24/4/4
f 24/1/5 28/2/5 25/3/5
f 24/1/5 25/3/5 21/4/5
f 25/1/2 29/2/2 30/3/2
f 25/1/2 30/3/2 26/4/2
f 26/1/3 30/2/3 31/3/3
f 26/1/3 31/3/3 27/4/3
f 27/1/4 31/2/4 32/3/4
f 27/1/4 32/3/4 28/4/4
f 28/1/5 32/2/5 29/3/5
f 28/1/5 29/3/5 25/4/5
f 29/1/2 33/2/2 34/3/2
f 29/1/2 34/3/2 30/4/2
f 30/1/3 34/2/3 35/3/3
f 30/1/3 35/3/3 31/4/3
f 31/1/4 35/2/4 36/3/4
f 31/1/4 36/3/4 32/4/4
f 32/1/5 36/2/5 33/3/5
f 32/1/5 33/3/5 29/4/5
f 33/1/2 37/2/2 38/3/2
f 33/1/2 38/3/2 34/4/2
f 34/1/3 38/2/3 39/3/3
f 34/1/3 39/3/3 35/4/3
f 35/1/4 39/2/4 40/3/4
f 35/1/4 40/3/4 36/4/4
f 36/1/5 40/2/5 37/3/5
f 36/1/5 37/3/5 33/4/5
f 37/1/2 41/2/2 42/3/2
f 37/1/2 42/3/2 38/4/2
f 38/1/3 42/2/3 43/3/3
f 38/1/3 43/3/3 39/4/3
f 39/1/4 43/2/4 44/3/4
f 39/1/4 44/3/4 40/4/4
f 40/1/5 44/2/5 41/3/5
f 40/1/5 41/3/5 37/4/5
f 43/1/6 42/2/6 41/3/6
f 43/1/6 41/3/6 44/4/6
